<svg width="15" height="16" viewBox="0 0 15 16" fill="none" xmlns="http://www.w3.org/2000/svg">
<path d="M13.1709 8.80754V12.85C13.1709 13.2947 12.8194 13.6585 12.3897 13.6585H3.01545C2.58579 13.6585 2.23426 13.2947 2.23426 12.85V8.80754C2.23426 8.36287 1.88272 7.99905 1.45307 7.99905C1.02341 7.99905 0.671875 8.36287 0.671875 8.80754V13.6585C0.671875 14.5478 1.37495 15.2754 2.23426 15.2754H13.1709C14.0302 15.2754 14.7333 14.5478 14.7333 13.6585V8.80754C14.7333 8.36287 14.3818 7.99905 13.9521 7.99905C13.5225 7.99905 13.1709 8.36287 13.1709 8.80754ZM8.48378 8.54074L9.95242 7.02078C10.2571 6.70547 10.7492 6.70547 11.0539 7.02078C11.3586 7.33609 11.3586 7.84544 11.0539 8.16075L8.24942 11.0632C7.94476 11.3785 7.45261 11.3785 7.14795 11.0632L4.34347 8.16075C4.03881 7.84544 4.03881 7.33609 4.34347 7.02078C4.64814 6.70547 5.14029 6.70547 5.44495 7.02078L6.9214 8.54074V1.53114C6.9214 1.08648 7.27294 0.722656 7.70259 0.722656C8.13225 0.722656 8.48378 1.08648 8.48378 1.53114V8.54074Z" fill="#013C74"/>
</svg>
