<svg width="24" height="24" viewBox="0 0 24 24" fill="none" xmlns="http://www.w3.org/2000/svg">
<g clip-path="url(#clip0_733_5451)">
<path d="M11.0013 20.4616C11.7377 20.4616 12.3346 19.8646 12.3346 19.1283C12.3346 18.3919 11.7377 17.7949 11.0013 17.7949C10.2649 17.7949 9.66797 18.3919 9.66797 19.1283C9.66797 19.8646 10.2649 20.4616 11.0013 20.4616Z" fill="#716E6E"/>
<path d="M15.9678 13.8714L16.0167 13.7958C16.065 13.721 16.0979 13.6374 16.1135 13.5498C16.1291 13.4621 16.1272 13.3723 16.1077 13.2854C16.0883 13.1986 16.0518 13.1164 16.0003 13.0438C15.9488 12.9712 15.8834 12.9096 15.8078 12.8625C14.3628 11.9698 12.6975 11.4973 10.999 11.498C10.7501 11.498 10.5056 11.498 10.2656 11.5292L11.6923 12.9558C12.89 13.0615 14.0465 13.445 15.0701 14.0758C15.217 14.1649 15.3928 14.1933 15.5603 14.1552C15.7278 14.117 15.874 14.0153 15.9678 13.8714Z" fill="#716E6E"/>
<path d="M17.559 10.1697C16.0778 9.24584 14.4182 8.64518 12.6888 8.40698C10.9594 8.16879 9.19925 8.29844 7.52344 8.78744L8.69233 9.95633C11.4849 9.35681 14.4013 9.87024 16.8212 11.3874C16.9674 11.4738 17.1411 11.5007 17.3065 11.4626C17.4719 11.4246 17.6164 11.3245 17.7101 11.183L17.759 11.1074C17.8084 11.033 17.8424 10.9495 17.859 10.8618C17.8757 10.774 17.8747 10.6839 17.8561 10.5965C17.8374 10.5092 17.8016 10.4264 17.7506 10.3531C17.6995 10.2799 17.6344 10.2175 17.559 10.1697Z" fill="#716E6E"/>
<path d="M4.33505 8.11104L5.71283 9.48882C5.26635 9.69461 4.83294 9.92764 4.41505 10.1866C4.33854 10.2333 4.27218 10.2949 4.21986 10.3677C4.16755 10.4405 4.13035 10.5231 4.11047 10.6105C4.09058 10.6979 4.08841 10.7884 4.10408 10.8767C4.11976 10.9649 4.15295 11.0492 4.20172 11.1244L4.25061 11.1999C4.34434 11.3414 4.48883 11.4415 4.65424 11.4796C4.81965 11.5176 4.99336 11.4907 5.13949 11.4044C5.65865 11.0778 6.20427 10.7954 6.77061 10.5599L8.16616 11.9555C7.4599 12.1824 6.78383 12.4943 6.15283 12.8844C6.07766 12.9318 6.01266 12.9937 5.96161 13.0665C5.91057 13.1393 5.87448 13.2215 5.85546 13.3083C5.83644 13.3951 5.83486 13.4849 5.85081 13.5723C5.86676 13.6598 5.89993 13.7432 5.94838 13.8177L5.99727 13.8933C6.09101 14.0348 6.2355 14.1349 6.40091 14.1729C6.56632 14.211 6.74002 14.184 6.88616 14.0977C7.64026 13.6317 8.46849 13.298 9.33505 13.111L10.9351 14.711C9.87054 14.7221 8.82845 15.0183 7.91727 15.5688C7.84225 15.6158 7.77735 15.6773 7.72635 15.7497C7.67536 15.8221 7.63929 15.9039 7.62026 15.9904C7.60122 16.0769 7.59961 16.1663 7.6155 16.2534C7.6314 16.3405 7.66448 16.4235 7.71283 16.4977L7.75727 16.5688C7.85507 16.7134 8.00501 16.8145 8.17568 16.8509C8.34635 16.8874 8.52451 16.8564 8.67283 16.7644C9.27098 16.4091 9.9429 16.1962 10.6365 16.1422C11.3302 16.0883 12.0269 16.1947 12.6728 16.4533L15.8906 19.6666L16.5173 19.0399L4.96172 7.48438L4.33505 8.11104Z" fill="#716E6E"/>
</g>
<defs>
<clipPath id="clip0_733_5451">
<rect width="16" height="16" fill="white" transform="translate(3 6)"/>
</clipPath>
</defs>
</svg>
