<svg width="20" height="20" viewBox="0 0 20 20" fill="none" xmlns="http://www.w3.org/2000/svg">
<g clip-path="url(#clip0_814_14902)">
<path d="M6.4 15L9.99999 11.4L13.6 15L15 13.6L11.4 10L15 6.4L13.6 5L9.99999 8.6L6.4 5L5 6.4L8.6 10L5 13.6L6.4 15ZM9.99999 20C8.61666 20 7.31666 19.7373 6.1 19.212C4.88333 18.6867 3.825 17.9743 2.925 17.075C2.025 16.1757 1.31267 15.1173 0.788001 13.9C0.263335 12.6827 0.000667932 11.3827 1.26582e-06 10C-0.0006654 8.61733 0.262001 7.31733 0.788001 6.1C1.314 4.88267 2.02633 3.82433 2.925 2.925C3.82367 2.02567 4.882 1.31333 6.1 0.788C7.318 0.262667 8.618 0 9.99999 0C11.382 0 12.682 0.262667 13.9 0.788C15.118 1.31333 16.1763 2.02567 17.075 2.925C17.9737 3.82433 18.6863 4.88267 19.213 6.1C19.7397 7.31733 20.002 8.61733 20 10C19.998 11.3827 19.7353 12.6827 19.212 13.9C18.6887 15.1173 17.9763 16.1757 17.075 17.075C16.1737 17.9743 15.1153 18.687 13.9 19.213C12.6847 19.739 11.3847 20.0013 9.99999 20ZM9.99999 18C12.2333 18 14.125 17.225 15.675 15.675C17.225 14.125 18 12.2333 18 10C18 7.76666 17.225 5.875 15.675 4.325C14.125 2.775 12.2333 2 9.99999 2C7.76666 2 5.875 2.775 4.325 4.325C2.775 5.875 2 7.76666 2 10C2 12.2333 2.775 14.125 4.325 15.675C5.875 17.225 7.76666 18 9.99999 18Z" fill="#7B7D7E"/>
</g>
<defs>
<clipPath id="clip0_814_14902">
<rect width="20" height="20" fill="white"/>
</clipPath>
</defs>
</svg>
