<svg width="15" height="15" viewBox="0 0 15 15" fill="none" xmlns="http://www.w3.org/2000/svg">
<path d="M7.5 11.25C7.7125 11.25 7.89075 11.178 8.03475 11.034C8.17875 10.89 8.2505 10.712 8.25 10.5C8.2495 10.288 8.1775 10.11 8.034 9.966C7.8905 9.822 7.7125 9.75 7.5 9.75C7.2875 9.75 7.1095 9.822 6.966 9.966C6.8225 10.11 6.7505 10.288 6.75 10.5C6.7495 10.712 6.8215 10.8902 6.966 11.0347C7.1105 11.1792 7.2885 11.251 7.5 11.25ZM6.75 8.25H8.25V3.75H6.75V8.25ZM7.5 15C6.4625 15 5.4875 14.803 4.575 14.409C3.6625 14.015 2.86875 13.4808 2.19375 12.8063C1.51875 12.1318 0.984501 11.338 0.591001 10.425C0.197501 9.512 0.000500949 8.537 9.49367e-07 7.5C-0.000499051 6.463 0.196501 5.488 0.591001 4.575C0.985501 3.662 1.51975 2.86825 2.19375 2.19375C2.86775 1.51925 3.6615 0.985 4.575 0.591C5.4885 0.197 6.4635 0 7.5 0C8.5365 0 9.5115 0.197 10.425 0.591C11.3385 0.985 12.1323 1.51925 12.8063 2.19375C13.4803 2.86825 14.0148 3.662 14.4098 4.575C14.8048 5.488 15.0015 6.463 15 7.5C14.9985 8.537 14.8015 9.512 14.409 10.425C14.0165 11.338 13.4823 12.1318 12.8063 12.8063C12.1303 13.4808 11.3365 14.0152 10.425 14.4097C9.5135 14.8042 8.5385 15.001 7.5 15ZM7.5 13.5C9.175 13.5 10.5938 12.9187 11.7563 11.7562C12.9187 10.5937 13.5 9.175 13.5 7.5C13.5 5.825 12.9187 4.40625 11.7563 3.24375C10.5938 2.08125 9.175 1.5 7.5 1.5C5.825 1.5 4.40625 2.08125 3.24375 3.24375C2.08125 4.40625 1.5 5.825 1.5 7.5C1.5 9.175 2.08125 10.5937 3.24375 11.7562C4.40625 12.9187 5.825 13.5 7.5 13.5Z" fill="#716E6E"/>
</svg>
